<svg width="512" height="512" viewBox="0 0 512 512" fill="none" xmlns="http://www.w3.org/2000/svg">
    <rect width="512" height="512" rx="95" fill="#CC0000" />
    <path d="M99.3594 166.44L257.718 86.6646L416.075 166.44V325.861L257.718 405.637L99.3594 325.861V166.44Z" fill="#CC0000" />
    <path d="M262.157 246.086L409.415 172.714L415.335 320.611L262.157 400.642V246.086V246.086Z" fill="white" />
    <path d="M411.635 168.233L411.19 324.965L257.569 402.051L256.829 248.007L411.635 168.233V168.233ZM282.433 260.811L282.876 363.764L333.936 338.025L333.787 260.428L359.54 247.238V325.092L385.291 312.032L385.439 207.8L282.432 260.812L282.433 260.811Z" fill="#CC0000" />
    <path d="M267.782 87.8171C260.677 84.3598 249.281 84.3598 242.178 87.8171L101.876 157.604C94.7716 161.062 89.1484 169.769 89.1484 176.684V316.258C89.1484 323.3 94.9199 331.879 101.876 335.338L242.178 405.124C249.281 408.581 260.677 408.581 267.782 405.124L408.082 335.338C415.187 331.88 420.811 323.172 420.811 316.258V176.684C420.811 169.641 415.038 161.062 408.083 157.604L267.782 87.8171ZM392.248 160.805C399.351 164.262 399.351 170.025 392.248 173.482L269.409 234.562C262.306 238.019 250.91 238.019 243.806 234.562L119.191 172.586C112.086 169.129 112.086 163.366 119.191 159.909L242.028 98.8295C249.133 95.3722 260.528 95.3722 267.632 98.8295L392.245 160.805H392.248ZM100.1 186.799C100.1 179.757 105.872 176.94 112.827 180.397L238.478 242.885C245.581 246.343 251.205 255.05 251.205 261.965V385.917C251.205 392.96 245.434 395.776 238.478 392.319L112.827 329.831C105.724 326.373 100.1 317.666 100.1 310.751V186.799V186.799ZM275.182 390.398C268.077 393.856 262.454 391.039 262.454 383.996V261.965C262.454 254.922 268.225 246.343 275.181 242.885L397.131 182.318C404.236 178.86 409.859 181.677 409.859 188.72V310.751C409.859 317.794 404.087 326.373 397.131 329.831L275.181 390.398H275.182Z" fill="#910505" />
    <path d="M154.648 385H69.3516C63.6346 385 59 389.635 59 395.352V480.648C59 486.365 63.6346 491 69.3516 491H154.648C160.365 491 165 486.365 165 480.648V395.352C165 389.635 160.365 385 154.648 385Z" fill="#3178C6" />
    <path d="M154.648 385H69.3516C63.6346 385 59 389.635 59 395.352V480.648C59 486.365 63.6346 491 69.3516 491H154.648C160.365 491 165 486.365 165 480.648V395.352C165 389.635 160.365 385 154.648 385Z" fill="#3178C6" />
    <path fill-rule="evenodd" clip-rule="evenodd" d="M124.616 469.35V479.714C126.301 480.577 128.294 481.225 130.594 481.657C132.895 482.089 135.319 482.305 137.868 482.305C140.353 482.305 142.712 482.067 144.948 481.592C147.184 481.117 149.144 480.334 150.829 479.244C152.514 478.154 153.848 476.729 154.83 474.969C155.813 473.209 156.305 471.034 156.305 468.443C156.305 466.564 156.024 464.918 155.462 463.504C154.901 462.089 154.091 460.832 153.032 459.73C151.974 458.629 150.705 457.641 149.225 456.767C147.745 455.892 146.077 455.066 144.219 454.289C142.858 453.728 141.638 453.183 140.558 452.654C139.478 452.124 138.56 451.585 137.804 451.034C137.047 450.484 136.464 449.901 136.054 449.285C135.644 448.67 135.438 447.974 135.438 447.196C135.438 446.484 135.622 445.841 135.989 445.269C136.356 444.697 136.875 444.206 137.544 443.795C138.214 443.385 139.035 443.067 140.007 442.84C140.979 442.613 142.059 442.5 143.247 442.5C144.111 442.5 145.024 442.565 145.985 442.694C146.946 442.824 147.913 443.024 148.885 443.293C149.857 443.563 150.802 443.903 151.72 444.314C152.638 444.724 153.486 445.199 154.263 445.739V436.055C152.687 435.45 150.964 435.002 149.095 434.711C147.227 434.419 145.083 434.273 142.664 434.273C140.201 434.273 137.868 434.538 135.665 435.067C133.462 435.596 131.523 436.422 129.849 437.545C128.175 438.667 126.852 440.098 125.88 441.836C124.908 443.574 124.422 445.652 124.422 448.071C124.422 451.158 125.313 453.793 127.095 455.973C128.877 458.154 131.582 460 135.212 461.512C136.637 462.095 137.966 462.667 139.197 463.228C140.428 463.79 141.492 464.373 142.388 464.977C143.285 465.582 143.992 466.24 144.511 466.953C145.029 467.665 145.288 468.475 145.288 469.382C145.288 470.051 145.126 470.672 144.802 471.244C144.478 471.816 143.987 472.313 143.328 472.734C142.669 473.155 141.848 473.484 140.866 473.722C139.883 473.959 138.732 474.078 137.415 474.078C135.168 474.078 132.943 473.684 130.74 472.896C128.537 472.108 126.495 470.926 124.616 469.35V469.35ZM107.193 443.814H120.488V435.309H83.4297V443.814H96.6602V481.684H107.193V443.814Z" fill="white" />
</svg>
